<?xml version="1.0" encoding="utf-8"?>
<!-- Generator: Adobe Illustrator 25.3.1, SVG Export Plug-In . SVG Version: 6.00 Build 0)  -->
<svg version="1.1" id="Layer_1" xmlns="http://www.w3.org/2000/svg" xmlns:xlink="http://www.w3.org/1999/xlink" x="0px" y="0px"
	 viewBox="0 0 200 200" enable-background="new 0 0 200 200" xml:space="preserve">
<g>
	<g>
		<g>
			<g>
				<g>
					<path fill="#E2A36A" d="M100.22,62.32C100.22,62.32,100.22,62.32,100.22,62.32c-0.24,0-0.43-0.19-0.42-0.43l0.51-45.92
						c0-0.23,0.19-0.42,0.42-0.42c0,0,0,0,0,0c0.23,0,0.42,0.19,0.42,0.43l-0.51,45.92C100.64,62.13,100.46,62.32,100.22,62.32z"/>
				</g>
				<g>
					<path fill="#E2A36A" d="M87.04,64.5c-0.17,0-0.34-0.11-0.4-0.28L71.42,20.89c-0.08-0.22,0.04-0.46,0.26-0.54
						c0.22-0.08,0.46,0.04,0.54,0.26l15.22,43.32c0.08,0.22-0.04,0.46-0.26,0.54C87.13,64.49,87.08,64.5,87.04,64.5z"/>
				</g>
				<g>
					<path fill="#E2A36A" d="M75.39,71.05c-0.12,0-0.24-0.05-0.33-0.15l-29.12-35.5c-0.15-0.18-0.12-0.45,0.06-0.6
						c0.18-0.15,0.45-0.12,0.6,0.06l29.12,35.5c0.15,0.18,0.12,0.45-0.06,0.6C75.58,71.02,75.48,71.05,75.39,71.05z"/>
				</g>
				<g>
					<path fill="#E2A36A" d="M66.68,81.19c-0.07,0-0.15-0.02-0.22-0.06l-39.51-23.4c-0.2-0.12-0.27-0.38-0.15-0.58
						c0.12-0.2,0.38-0.27,0.58-0.15L66.9,80.4c0.2,0.12,0.27,0.38,0.15,0.58C66.97,81.12,66.83,81.19,66.68,81.19z"/>
				</g>
			</g>
			<g>
				<g>
					<path fill="#E2A36A" d="M61.97,93.7c-0.03,0-0.05,0-0.08-0.01l-45.13-8.48c-0.23-0.04-0.38-0.26-0.34-0.49
						c0.04-0.23,0.26-0.39,0.49-0.34l45.13,8.48c0.23,0.04,0.38,0.26,0.34,0.49C62.35,93.56,62.17,93.7,61.97,93.7z"/>
				</g>
				<g>
					<path fill="#E2A36A" d="M16.51,114.53c-0.2,0-0.38-0.15-0.42-0.35c-0.04-0.23,0.12-0.45,0.35-0.49l45.31-7.47
						c0.22-0.04,0.45,0.12,0.49,0.35c0.04,0.23-0.12,0.45-0.35,0.49l-45.31,7.47C16.56,114.53,16.54,114.53,16.51,114.53z"/>
				</g>
				<g>
					<path fill="#E2A36A" d="M26.23,142.19c-0.15,0-0.29-0.08-0.37-0.22c-0.12-0.2-0.04-0.46,0.16-0.58l40.02-22.51
						c0.2-0.12,0.46-0.04,0.58,0.16c0.12,0.2,0.04,0.46-0.16,0.58l-40.02,22.51C26.37,142.17,26.3,142.19,26.23,142.19z"/>
				</g>
				<g>
					<path fill="#E2A36A" d="M44.82,164.85c-0.1,0-0.2-0.03-0.28-0.1c-0.18-0.15-0.2-0.42-0.05-0.6l29.91-34.84
						c0.15-0.18,0.42-0.2,0.6-0.05c0.18,0.15,0.2,0.42,0.05,0.6L45.14,164.7C45.06,164.8,44.94,164.85,44.82,164.85z"/>
				</g>
			</g>
			<g>
				<g>
					<path fill="#E2A36A" d="M70.04,179.79c-0.05,0-0.1-0.01-0.15-0.03c-0.22-0.08-0.33-0.33-0.25-0.54l16.19-42.97
						c0.08-0.22,0.32-0.33,0.54-0.25c0.22,0.08,0.33,0.33,0.25,0.54l-16.19,42.97C70.37,179.68,70.21,179.79,70.04,179.79z"/>
				</g>
				<g>
					<path fill="#E2A36A" d="M98.85,185.2C98.85,185.2,98.85,185.2,98.85,185.2c-0.24,0-0.43-0.19-0.42-0.43l0.51-45.92
						c0-0.23,0.22-0.4,0.43-0.42c0.23,0,0.42,0.19,0.42,0.43l-0.51,45.92C99.27,185.01,99.08,185.2,98.85,185.2z"/>
				</g>
				<g>
					<path fill="#E2A36A" d="M127.77,180.43c-0.17,0-0.34-0.11-0.4-0.28l-15.22-43.32c-0.08-0.22,0.04-0.46,0.26-0.54
						c0.22-0.08,0.46,0.04,0.54,0.26l15.22,43.32c0.08,0.22-0.04,0.46-0.26,0.54C127.87,180.43,127.82,180.43,127.77,180.43z"/>
				</g>
				<g>
					<path fill="#E2A36A" d="M153.32,166.06c-0.12,0-0.24-0.05-0.33-0.15l-29.12-35.5c-0.15-0.18-0.12-0.45,0.06-0.6
						c0.18-0.15,0.45-0.12,0.6,0.06l29.12,35.5c0.15,0.18,0.12,0.45-0.06,0.6C153.51,166.03,153.42,166.06,153.32,166.06z"/>
				</g>
			</g>
			<g>
				<g>
					<path fill="#E2A36A" d="M172.41,143.82c-0.07,0-0.15-0.02-0.22-0.06l-39.51-23.4c-0.2-0.12-0.27-0.38-0.15-0.58
						c0.12-0.2,0.38-0.27,0.58-0.15l39.51,23.4c0.2,0.12,0.27,0.38,0.15,0.58C172.7,143.74,172.56,143.82,172.41,143.82z"/>
				</g>
				<g>
					<path fill="#E2A36A" d="M182.75,116.39c-0.03,0-0.05,0-0.08-0.01l-45.13-8.48c-0.23-0.04-0.38-0.26-0.34-0.49
						c0.04-0.23,0.26-0.38,0.49-0.34l45.13,8.48c0.23,0.04,0.38,0.26,0.34,0.49C183.12,116.25,182.95,116.39,182.75,116.39z"/>
				</g>
				<g>
					<path fill="#E2A36A" d="M137.76,94.54c-0.2,0-0.38-0.15-0.42-0.35c-0.04-0.23,0.12-0.45,0.35-0.49l45.31-7.47
						c0.22-0.04,0.45,0.12,0.49,0.35c0.04,0.23-0.12,0.45-0.35,0.49l-45.31,7.47C137.81,94.54,137.79,94.54,137.76,94.54z"/>
				</g>
				<g>
					<path fill="#E2A36A" d="M133.34,81.93c-0.15,0-0.29-0.08-0.37-0.22c-0.12-0.2-0.04-0.46,0.16-0.58l40.02-22.51
						c0.2-0.11,0.46-0.04,0.58,0.16c0.12,0.2,0.04,0.46-0.16,0.58l-40.02,22.51C133.48,81.92,133.41,81.93,133.34,81.93z"/>
				</g>
			</g>
		</g>
		<g>
			<g>
				<path fill="#E2A36A" d="M124.86,71.6c-0.1,0-0.2-0.03-0.28-0.1c-0.18-0.15-0.2-0.42-0.05-0.6l29.91-34.85
					c0.15-0.18,0.42-0.2,0.6-0.05c0.18,0.15,0.2,0.42,0.05,0.6l-29.91,34.85C125.1,71.55,124.98,71.6,124.86,71.6z"/>
			</g>
			<g>
				<path fill="#E2A36A" d="M113.36,64.79c-0.05,0-0.1-0.01-0.15-0.03c-0.22-0.08-0.33-0.33-0.25-0.54l16.19-42.97
					c0.08-0.22,0.32-0.33,0.54-0.25c0.22,0.08,0.33,0.33,0.25,0.55l-16.19,42.97C113.69,64.68,113.53,64.79,113.36,64.79z"/>
			</g>
		</g>
	</g>
	<circle fill="#E2A36A" cx="99.79" cy="100.38" r="37.55"/>
</g>
</svg>
